<?xml version="1.0" encoding="utf-8"?>
<!-- Generator: Adobe Illustrator 23.0.4, SVG Export Plug-In . SVG Version: 6.00 Build 0)  -->
<svg version="1.1" id="Layer_1" xmlns="http://www.w3.org/2000/svg" xmlns:xlink="http://www.w3.org/1999/xlink" x="0px" y="0px"
	 viewBox="0 0 40.92 46.72" style="enable-background:new 0 0 40.92 46.72;" xml:space="preserve">
<g>
	<polygon points="10.67,8.44 8.42,3.54 5.77,6.19 	"/>
	<polygon points="19.57,8.27 24.47,6.01 21.83,3.37 	"/>
	<polygon points="15.12,5.06 16.99,0 13.25,0 	"/>
	<path d="M40.92,28.79c0-3.69-1.44-7.16-4.05-9.77l-4-4c-1.39-1.39-3.65-1.39-5.04,0c-0.39,0.39-0.68,0.85-0.85,1.36l-3.89-3.89
		c-1.39-1.39-3.65-1.39-5.04,0c-0.4,0.4-0.68,0.86-0.85,1.36l-0.56-0.56c-1.39-1.39-3.65-1.39-5.04,0c-0.8,0.8-1.13,1.88-1.01,2.93
		c-0.17,0.12-0.34,0.25-0.49,0.4c-0.4,0.4-0.68,0.86-0.85,1.36L8.69,17.4c-1.35-1.35-3.69-1.35-5.04,0c-1.34,1.34-1.39,3.5-0.14,4.9
		c-0.5,0.17-0.97,0.45-1.37,0.85c-0.67,0.67-1.04,1.57-1.04,2.52c0,0.95,0.37,1.85,1.04,2.52l0.26,0.26
		c-0.51,0.17-0.97,0.46-1.36,0.85C0.37,29.98,0,30.87,0,31.82c0,0.95,0.37,1.85,1.04,2.52l8.34,8.34c2.69,2.69,6.23,4.04,9.77,4.04
		c3.54,0,7.08-1.35,9.77-4.04c0.08-0.08,0.14-0.16,0.22-0.24c2.92-0.43,5.61-1.76,7.73-3.88C39.48,35.95,40.92,32.48,40.92,28.79z
		 M15.22,14.7l2.83,2.83l0,0c0,0,0,0,0,0l1.73,1.73c-0.33,0.36-0.6,0.78-0.75,1.24l-3.89-3.89c-0.71-0.71-1.64-1.05-2.57-1.04
		c0.05-0.32,0.19-0.63,0.43-0.87C13.62,14.09,14.61,14.09,15.22,14.7z M27.51,41.27c-4.61,4.61-12.11,4.61-16.71,0l-8.34-8.34
		C2.16,32.63,2,32.24,2,31.82c0-0.42,0.16-0.81,0.46-1.11c0.29-0.3,0.69-0.46,1.1-0.46c0.42,0,0.81,0.16,1.11,0.46l0,0c0,0,0,0,0,0
		l4.37,4.37c0.2,0.2,0.45,0.29,0.71,0.29s0.51-0.1,0.71-0.29c0.39-0.39,0.39-1.02,0-1.41L6.08,29.3l0,0c0,0,0,0-0.01,0l-2.52-2.52
		c-0.3-0.29-0.46-0.69-0.46-1.1c0-0.42,0.16-0.81,0.46-1.11c0.61-0.61,1.6-0.61,2.21,0l6.22,6.22c0.2,0.2,0.45,0.29,0.71,0.29
		s0.51-0.1,0.71-0.29c0.39-0.39,0.39-1.02,0-1.41l-6.22-6.22l-2.12-2.12c-0.61-0.61-0.61-1.6,0-2.21c0.61-0.61,1.6-0.61,2.21,0
		l2.83,2.83l5.92,5.92c0.2,0.2,0.45,0.29,0.71,0.29s0.51-0.1,0.71-0.29c0.39-0.39,0.39-1.02,0-1.41l-5.92-5.92
		c-0.61-0.61-0.61-1.6,0-2.21c0.59-0.59,1.62-0.59,2.21,0l6.15,6.15c0,0,0,0,0,0l0,0l3.99,3.99c0.2,0.2,0.45,0.29,0.71,0.29
		s0.51-0.1,0.71-0.29c0.39-0.39,0.39-1.02,0-1.41l-3.99-3.99l0,0c-0.29-0.29-0.45-0.69-0.45-1.1c0-0.42,0.16-0.81,0.46-1.11
		c0.59-0.59,1.62-0.59,2.21,0l4,4c2.23,2.23,3.46,5.2,3.46,8.36C30.97,36.07,29.74,39.03,27.51,41.27z M30.19,41.2
		c-0.01,0.02-0.03,0.04-0.04,0.05C30.17,41.23,30.18,41.21,30.19,41.2z M31.05,39.92c1.24-2.1,1.92-4.5,1.92-7.01
		c0-3.69-1.44-7.16-4.05-9.77l-4-4c-0.88-0.88-2.17-1.17-3.34-0.91l-2.11-2.11l0,0c-0.61-0.61-0.61-1.6,0-2.21
		c0.61-0.61,1.6-0.61,2.21,0l6.15,6.15l3.99,3.99c0.2,0.2,0.45,0.29,0.71,0.29s0.51-0.1,0.71-0.29c0.39-0.39,0.39-1.02,0-1.41
		l-3.99-3.99c-0.3-0.3-0.46-0.69-0.46-1.11s0.16-0.81,0.46-1.11c0.61-0.61,1.6-0.61,2.21,0l4,4c2.23,2.23,3.46,5.2,3.46,8.36
		c0,3.16-1.23,6.13-3.46,8.36C34.19,38.41,32.69,39.34,31.05,39.92z"/>
</g>
<g>
</g>
<g>
</g>
<g>
</g>
<g>
</g>
<g>
</g>
<g>
</g>
</svg>
