<?xml version="1.0" encoding="utf-8"?>
<!-- Generator: Adobe Illustrator 23.0.4, SVG Export Plug-In . SVG Version: 6.00 Build 0)  -->
<svg version="1.1" id="Layer_1" xmlns="http://www.w3.org/2000/svg" xmlns:xlink="http://www.w3.org/1999/xlink" x="0px" y="0px"
	 viewBox="0 0 136.39 57.26" style="enable-background:new 0 0 136.39 57.26;" xml:space="preserve">
<g>
	<path d="M136.38,39.91c-0.12-3.78-0.32-13.16-0.87-14.4c-0.56-1.24-1.43-1.31-2.62-1.14c-1.19,0.17-2.42,2.78-2.9,4.15
		c0,0-1.88,3.01-4.81,3.32c0,0-1.98-0.84-1.72-4.79s0.85-7-0.73-6.93c-1.59,0.07-3.62,1.78-4.57,4.29c-0.54,1.42-0.89,3.1-0.52,4.65
		c-0.14,0.28-0.26,0.52-0.36,0.7c-1.22,2.28-2.06,3.66-2.32,3.85l0.06-1.33c0.03-1.08,0.11-7.04,0.47-13.03l0.01,0
		c5.09-2.22,8.95-7.68,9.38-11.76c0.42-4.08-2.12-6.73-5.46-6.94c-3.34-0.21-5.88,3.07-8.04,7.2c-2.16,4.13-3.04,11.23-3.55,18.33
		c0,0-0.03,0.28-0.05,0.75c-3.13,7.66-6.05,11.05-6.05,11.05c-0.3,0.38-1.38-1.86-1.38-1.86c-2.38-3.71-5.03-6.62-5.67-6.83
		c0,0,4.29-4.4,5.67-6.3c1.38-1.91,1.48-2.49,1.11-2.81c-0.37-0.32-1.8,0.85-2.33,1.38c-0.53,0.53-5.14,5.51-5.14,5.51
		s-0.02-4.26,0.28-9.29c1.26-0.95,4.35-3.58,5.6-7.29c1.59-4.71,1.91-9.27-2.38-10.28c-4.29-1.01-8,6.09-8.37,7.36
		s-2.28,7.63-2.6,20.18c0,0-5.51,10.92-6.83,13.14c-1.32,2.22-2.22,3.56-2.49,3.74c-0.26,0.18,0.05-1.46,0.48-4.27
		c0.42-2.81,2.44-11.6,0.43-15.47c-2.02-3.87-4.93-0.55-4.93-0.55s-4.82,7.11-6.52,10.66c0,0,0.48-5.56,0.32-6.67
		s-0.58-2.91-1.85-2.81c-1.27,0.11-1.82,1.88-3.6,6.36c0,0-3.55,5.46-4.66,5.56c0,0-0.21-1.06,0.32-3.34s2.97-11.18,3.07-12.61
		c0.11-1.43-0.11-2.63-1.38-2.53c-1.27,0.1-2.33,1.63-2.33,1.63s-4.47-2.65-8.3-0.95c-3.83,1.7-5.42,4.8-5.95,6.19
		c-0.53,1.39-1.59,6.37,1.75,8.01c0.33,0.16,0.66,0.31,0.97,0.45c-3.31,8.56-6.56,12.33-6.56,12.33s-0.05-1.7,0.64-7.36
		c0.69-5.67-0.69-8.16-1.91-10.06c-1.22-1.91-3.71-2.38-4.82-2.01c-0.63,0.21-1.66,1.18-2.43,1.98c0.06-1.66,0.14-3.46,0.25-5.26
		l0.01,0c4.6-2.01,8.2-6.66,9.16-10.55c8.15-3.11,16.28-6.7,21.35-7.78c6.46-1.38,9.59-1.04,12.08-0.7c2.12,0.28,5.52,1.6,7.13,2.9
		c-0.17,0.41-0.32,0.79-0.45,1.09c-0.74,1.7-0.74,3.71,1.27,3.6s2.22-1.7,1.32-3.5c-0.22-0.44-0.69-1.04-1.38-1.67
		c0.08-0.22,0.15-0.39,0.21-0.5c0.37-0.69,0.94-3.02,0.84-3.76c0,0-0.77,2.07-1.48,3.88C78,4.93,73.9,2.89,68.32,3.34
		c-7.89,0.64-13.51,2.44-15.04,2.91c-1.04,0.32-7.37,2.9-13.68,5.14c0.11-3.72-2.34-6.11-5.5-6.31c-3.34-0.21-5.88,3.07-8.04,7.2
		c-0.5,0.96-0.93,2.08-1.31,3.32c-2.05,0.43-4.11,0.79-6.08,0.99c0-0.01,0-0.02,0-0.02c0.11-1.17,0.79-9.69,0.74-10.81
		c-0.05-1.11-1.7-1.48-2.33-0.26c-0.64,1.22-3.44,11.07-3.44,11.07s-0.01,0.05-0.03,0.13c-1.58-0.13-2.99-0.45-4.15-1.04
		c-4.87-2.44-5.99-3.44-7.2-5.93c0,0-0.74-2.07-1.27-1.91C0.46,8-0.49,9.11,0.3,11.18c0.79,2.07,3.23,5.19,8.16,6.46
		c1.31,0.34,2.92,0.59,4.77,0.71C12.41,21.89,10.6,29.92,10,34.8c-0.79,6.41,1.38,8.53,2.6,10.12c1.22,1.59,4.66,1.01,5.77-0.48
		c0.87-1.17,3.29-5.8,4.28-7.73c0.51,3.16,1.86,4.85,4.09,5.02c3.39,0.25,2.97-4.91,2.97-4.91c0.02-0.69,0.06-3.39,0.18-6.82
		c1.71-1.64,3.38-2.2,3.95-1.82c0.64,0.42-0.11,4.93-1.06,8.37c-0.95,3.44-0.79,6.04-0.53,8.84c0.26,2.81,2.54,4.82,5.14,4.88
		c2.6,0.05,4.4-5.14,4.87-6.38c0.34-0.9,2.35-6.43,3.43-9.43c2.45,0.91,4.19,0.73,5.48-0.93c0,0-0.3,4.77,2.03,5.77
		c2.33,1.01,3.66,0.79,5.19-1.17c1.54-1.96,2.49-3.81,2.49-3.81s0.05,4.45,1.17,5.24s3.28,1.48,4.18,0.74
		c0.9-0.74,6.36-13.72,8.05-14.99c0,0,0.21,0.26,0,1.32c-0.21,1.06-2.7,8.25-3.07,12.39c-0.37,4.14-0.95,7.79,2.6,9.17
		c3.55,1.38,5.3-2.81,5.3-2.81s7.15-15.41,7.68-16c0,0,0.05,8.42,1.38,10.06c1.32,1.64,2.91,1.91,3.92,1.91
		c1.01,0,1.59-1.27,1.59-1.96c0-0.69,0-5.35,0-5.35s2.17,4.4,4.98,6.73c0,0,0.74,0.85,2.01,0.85c2.6-0.01,4.4-5.14,4.87-6.38
		c0.24-0.62,1.27-3.46,2.24-6.15c0.15,2.95,0.9,7.15,3.95,8.33c3.55,1.38,5.16-3.05,5.16-3.05s0.62-1.52,1.5-3.63
		c0.38,0.54,0.9,1.03,1.58,1.46c3.14,1.98,7.47,1.74,9.68-1.74c0,0,0.29,7.26,0.34,9.77c-1.11,0.49-3.74,1.7-5.12,2.69
		c-1.79,1.27-4.49,3.82-5.52,6.09c-1.03,2.28-0.64,5.99,0.72,6.98c1.35,0.99,3.1,1.46,5.4,1.19c2.3-0.27,6.32-1.47,8.22-5.19
		C135.59,48.28,136.5,43.69,136.38,39.91z M98.02,1.63c0,0,1.43,0.11,1.59,2.65c0.15,2.48,1.36,6.82-5.29,12.62
		C94.75,10.3,95.73,2.69,98.02,1.63z M80.56,8.32c1.06,1.48,1.27,2.44,1.11,2.91c-0.16,0.48-1.17,1.07-1.64,0.22
		c-0.31-0.56-0.01-2.14,0.34-3.36C80.44,8.16,80.5,8.24,80.56,8.32z M30.39,23.15c-0.07,0.03-0.13,0.05-0.19,0.08
		c0.15-2.48,0.35-4.94,0.62-7.03c0.61-0.18,1.23-0.37,1.85-0.58c1.89-0.62,3.82-1.32,5.76-2.05C37.46,18.89,31.61,22.62,30.39,23.15
		z M35.53,6.36c0.56,0,3.1,1.46,3.08,5.38c-2.68,0.93-5.3,1.78-7.47,2.35C32.31,7.68,34.92,6.36,35.53,6.36z M16.54,42.58
		c-0.24-1.01,0.03-7.2,0.24-9.69c0.17-2.01,1.24-10.67,1.7-14.53c1.8-0.1,3.71-0.31,5.72-0.64c-0.87,3.77-1.36,8.33-1.69,12.89
		c-0.1,1.45-0.13,2.76-0.08,3.93C19.85,39.62,16.54,42.58,16.54,42.58z M52.12,30.56c0,0-1.96,2.12-3.88,2.49c0,0-1.1-1.27,0-5.14
		c1.1-3.87,2.9-5.51,3.46-5.93c0.55-0.42,2.25-1.75,3.94,0C55.64,21.98,53.48,25.84,52.12,30.56z M120.84,1.81
		c0.64,0,3.87,1.91,2.9,7.22c-0.97,5.31-6.82,9.04-8.04,9.57c-0.07,0.03-0.13,0.05-0.19,0.08c0.19-3.02,0.44-6.01,0.8-8.34
		C117.41,3.24,120.2,1.81,120.84,1.81z M128.28,51.73c-1.83,3.55-4.29,4.39-5.01,4.25c-0.72-0.13-3.38-2.68-2.66-5.39
		c0.72-2.71,4.45-7.77,8.22-9.18c0.41-0.15,0.8-0.29,1.16-0.43C130.03,43.66,129.95,48.48,128.28,51.73z"/>
</g>
<g>
</g>
<g>
</g>
<g>
</g>
<g>
</g>
<g>
</g>
<g>
</g>
</svg>
